 <svg  version="1.0" xmlns="http://www.w3.org/2000/svg"  width="300.000000pt" height="245.000000pt" viewBox="0 0 300.000000 245.000000"  preserveAspectRatio="xMidYMid meet">  <g transform="translate(0.000000,245.000000) scale(0.050000,-0.050000)" fill="#5a44ca" stroke="none"> <path d="M2832 4777 c-17 -25 -105 -72 -202 -110 -313 -121 -870 -512 -870 -611 0 -35 56 -12 111 46 248 260 865 557 1009 485 118 -59 243 108 150 200 -48 49 -161 43 -198 -10z m138 -79 c0 -35 -11 -48 -40 -48 -47 0 -67 67 -27 92 41 26 67 10 67 -44z"/> <path d="M4140 4799 c0 -30 29 -37 56 -14 27 22 29 17 17 -35 -11 -49 -9 -53 8 -24 30 49 10 92 -40 89 -23 -2 -41 -9 -41 -16z"/> <path d="M1893 4603 c-18 -20 -33 -54 -33 -75 0 -22 -41 -80 -91 -129 -282 -275 -664 -979 -532 -979 8 0 31 44 50 97 128 357 537 867 701 876 64 3 132 67 132 125 0 107 -154 166 -227 85z m140 -113 c-7 -18 -29 -30 -48 -26 -43 8 -58 75 -22 98 36 22 86 -29 70 -72z"/> <path d="M3792 4563 c-6 -10 -135 -13 -287 -8 -354 12 -965 -100 -965 -178 0 -26 40 -21 244 32 388 101 872 85 980 -31 87 -94 236 -44 236 80 0 92 -165 175 -208 105z m124 -108 c-4 -30 -20 -45 -46 -45 -26 0 -42 15 -46 45 -6 37 3 45 46 45 43 0 52 -8 46 -45z"/> <path d="M3360 4325 c0 -26 48 -45 117 -45 241 0 1026 -356 991 -449 -35 -90 154 -172 233 -100 89 81 17 234 -107 226 -42 -2 -99 18 -166 60 -313 194 -1068 412 -1068 308z m1290 -495 c0 -44 -62 -66 -95 -33 -15 15 -13 31 5 53 35 42 90 30 90 -20z"/> <path d="M2248 4097 c-22 -43 -29 -93 -23 -151 6 -47 1 -92 -9 -99 -11 -6 -14 -48 -8 -94 15 -100 15 -117 2 -233 -24 -202 -1 -273 108 -335 42 -24 54 -46 55 -103 0 -40 7 -108 14 -152 7 -44 7 -67 0 -50 -30 67 -64 83 -86 42 -32 -60 -26 -81 34 -107 30 -13 85 -49 121 -79 36 -31 77 -56 91 -56 14 0 62 -18 107 -39 45 -22 121 -45 169 -52 188 -25 180 -19 165 -129 -17 -127 40 -167 157 -111 138 66 198 198 152 332 -17 48 -15 68 8 95 16 19 57 84 92 146 34 61 94 145 132 186 39 41 79 111 91 158 12 46 39 134 61 196 77 222 43 205 -286 -140 -55 -58 -73 -96 -35 -72 11 7 20 -1 20 -18 0 -39 -34 -59 -46 -27 -4 14 -16 18 -25 10 -9 -9 0 -27 21 -42 23 -17 30 -37 20 -53 -11 -17 -8 -21 7 -12 13 8 23 5 23 -6 0 -30 -35 -46 -50 -22 -26 43 -51 -6 -38 -75 l14 -72 -63 45 c-65 46 -80 31 -40 -44 20 -37 19 -40 -5 -21 -40 33 -123 41 -132 13 -6 -15 11 -22 45 -20 39 3 56 -6 60 -33 3 -20 1 -32 -5 -26 -12 12 -86 -73 -86 -97 0 -8 17 -10 39 -5 23 6 43 -1 50 -19 17 -45 15 -46 -50 -46 -34 0 -56 8 -50 19 20 32 -29 46 -63 18 -26 -21 -34 -22 -41 -2 -5 14 -18 25 -29 25 -11 0 -15 -15 -8 -33 11 -27 8 -29 -18 -7 -40 33 -1 86 52 69 28 -9 40 4 54 55 22 82 12 97 -28 40 -35 -51 -92 -57 -129 -13 -21 25 -18 36 13 61 37 29 37 30 -4 19 -50 -14 -78 98 -57 226 21 127 36 137 51 33 l14 -100 -3 113 c-2 83 3 109 20 95 15 -13 26 -8 35 13 8 21 25 28 52 19 24 -8 40 -4 40 10 0 12 -9 17 -20 10 -11 -7 -14 1 -7 20 8 20 24 27 45 19 66 -28 117 -32 67 -6 -25 13 -45 30 -45 38 0 24 117 34 140 11 13 -13 20 -12 20 4 0 50 37 21 77 -60 31 -63 45 -75 54 -50 7 19 -5 58 -29 91 -23 33 -42 71 -42 86 1 15 19 -2 42 -38 47 -72 62 -83 45 -30 -9 29 -7 30 10 5 12 -16 16 -50 10 -75 -16 -65 7 -56 44 18 32 60 31 86 -2 252 -15 74 -40 84 -59 25 -17 -53 -44 -35 -60 40 -23 107 -66 48 -52 -72 1 -14 -35 -18 -107 -12 -107 9 -110 8 -215 -91 -204 -192 -242 -155 -164 163 13 53 10 57 -30 47 -36 -10 -42 -5 -31 27 15 47 -25 50 -88 6 -25 -18 -48 -29 -51 -25 -3 4 -57 74 -120 156 -63 81 -120 174 -126 205 -14 73 -37 71 -78 -7z m235 -371 c15 23 39 -53 34 -106 -9 -84 6 -151 23 -110 17 39 17 39 19 -3 1 -58 -19 -109 -39 -97 -9 6 -11 -9 -5 -32 8 -32 15 -35 29 -15 17 27 4 -131 -18 -211 -7 -24 -2 -32 12 -23 31 19 27 -14 -7 -60 -27 -38 -29 -37 -48 14 -12 30 -37 64 -57 77 -33 21 -33 22 -1 12 46 -14 44 20 -5 82 -22 28 -35 58 -29 67 5 9 -1 23 -14 31 -14 9 -18 6 -9 -9 8 -13 5 -23 -6 -23 -22 0 -49 37 -55 75 -2 14 5 25 15 25 10 0 18 -9 18 -20 0 -11 15 -20 33 -20 30 0 30 4 -3 40 -20 22 -26 40 -14 40 12 0 27 -9 34 -20 7 -11 23 -20 35 -20 12 0 6 12 -14 27 -21 15 -31 36 -24 48 8 13 -2 17 -27 11 -22 -6 -40 -1 -40 12 0 42 -3 52 -27 82 -16 20 -6 18 34 -7 31 -20 62 -30 69 -24 7 7 0 21 -16 31 -16 10 -22 24 -14 33 8 8 25 4 38 -9 13 -13 32 -24 41 -24 10 0 -17 33 -59 73 -51 49 -63 69 -36 61 35 -12 34 -9 -5 19 -83 59 -46 67 40 8 57 -38 89 -50 98 -35z m316 -449 c-45 -108 -34 -312 22 -417 26 -49 49 -107 51 -128 2 -22 19 -51 39 -65 20 -15 31 -31 26 -37 -6 -6 -36 14 -66 45 -31 30 -66 55 -78 55 -85 0 -176 412 -113 510 17 27 19 27 20 0 1 -16 19 10 41 58 50 110 104 90 58 -21z m741 34 c0 -38 -9 -74 -20 -81 -12 -7 -20 20 -20 69 0 44 9 81 20 81 11 0 20 -31 20 -69z m-891 -26 c-20 -73 -21 -343 0 -400 10 -29 8 -45 -7 -45 -12 0 -22 18 -22 40 0 43 -32 55 -45 16 -4 -12 -4 39 0 115 4 77 16 162 27 191 11 28 21 71 23 95 2 23 12 43 22 43 10 0 11 -24 2 -55z m607 -647 c-3 -43 -24 -78 -67 -110 -74 -57 -113 -61 -108 -13 9 87 -1 105 -56 105 -44 -1 -49 -5 -25 -22 23 -16 24 -19 2 -13 -77 20 -34 65 60 62 54 -1 113 10 133 25 54 41 66 34 61 -34z"/> <path d="M2688 3060 c5 -135 65 -320 103 -320 5 0 -10 38 -33 85 -25 48 -50 149 -59 235 l-16 150 5 -150z"/> <path d="M1091 3996 c-19 -46 -21 -76 -6 -109 16 -34 11 -70 -20 -151 -23 -58 -52 -151 -65 -206 -13 -55 -28 -118 -34 -140 -19 -78 -29 -601 -12 -679 38 -174 66 -104 66 169 0 425 116 887 237 945 134 65 97 235 -51 235 -80 0 -90 -6 -115 -64z m146 -14 c36 -23 21 -90 -22 -98 -39 -8 -65 40 -48 86 13 34 31 37 70 12z"/> <path d="M4093 3924 c-7 -10 39 -53 102 -96 310 -212 696 -700 672 -850 -13 -85 55 -178 132 -178 128 0 165 204 48 260 -40 19 -101 88 -167 186 -197 295 -737 760 -787 678z m937 -984 c0 -57 -63 -81 -82 -31 -18 47 7 95 47 87 22 -4 35 -25 35 -56z"/> <path d="M3056 3304 c-12 -43 65 -110 93 -81 15 15 -12 97 -33 97 -10 0 -13 -9 -6 -20 7 -11 3 -20 -7 -20 -11 0 -23 16 -27 35 -6 28 -10 26 -20 -11z"/> <path d="M4560 3251 c0 -6 40 -84 88 -175 169 -317 312 -951 226 -999 -47 -26 -46 -160 3 -204 122 -111 300 70 183 187 -27 27 -47 87 -61 184 -45 323 -145 605 -312 885 -63 106 -127 168 -127 122z m438 -1238 c30 -37 7 -93 -38 -93 -20 0 -41 15 -48 33 -12 31 18 87 48 87 8 0 25 -12 38 -27z"/> <path d="M706 3198 c-92 -34 -110 -136 -37 -209 27 -27 46 -65 42 -86 -38 -198 311 -1103 426 -1103 14 0 23 7 20 16 -4 8 -45 92 -91 185 -131 263 -145 304 -197 560 -56 274 -61 384 -21 417 111 92 -4 271 -142 220z m95 -89 c42 -51 -27 -111 -74 -64 -33 32 -11 95 33 95 8 0 27 -14 41 -31z"/> <path d="M4719 2439 c-1 -5 -4 -139 -9 -299 -4 -159 -16 -321 -27 -360 -11 -38 -39 -141 -62 -228 -54 -198 -99 -288 -162 -319 -106 -52 -97 -218 14 -246 102 -25 157 28 158 154 1 61 26 183 57 279 91 282 126 934 53 1007 -12 12 -21 17 -22 12z m-163 -1327 c-4 -27 -20 -42 -46 -42 -45 0 -67 67 -29 91 40 24 82 -2 75 -49z"/> <path d="M1728 2305 c-13 -8 -57 -93 -99 -188 -71 -161 -80 -172 -122 -156 -59 23 -81 -12 -39 -59 41 -45 40 -54 -10 -125 -23 -33 -38 -64 -32 -70 19 -19 85 29 114 83 21 39 39 50 69 42 23 -7 70 -12 106 -12 52 0 65 -8 65 -41 0 -85 118 -279 170 -279 9 0 40 183 34 204 -2 8 18 5 44 -7 142 -64 259 223 144 356 -43 51 -52 53 -103 30 -45 -20 -58 -20 -71 0 -35 58 -93 -176 -99 -403 l-3 -110 -27 120 c-15 66 -29 206 -30 310 -5 284 -32 358 -111 305z m24 -311 l12 -112 -67 19 c-37 10 -68 19 -70 19 -1 0 21 44 50 99 62 117 60 117 75 -25z m368 -84 c0 -84 -69 -175 -99 -130 -22 34 -6 177 24 215 32 40 75 -9 75 -85z"/> <path d="M631 2196 c-56 -81 -11 -214 74 -217 14 0 77 -80 141 -178 171 -261 638 -680 759 -681 43 0 4 56 -67 96 -281 161 -717 714 -687 873 24 128 -147 211 -220 107z m145 -81 c8 -42 -50 -69 -80 -39 -30 30 -3 88 39 80 19 -3 38 -22 41 -41z"/> <path d="M2912 2108 c-267 -275 -70 -737 202 -474 78 76 51 131 -30 61 -177 -151 -282 97 -131 311 91 130 156 129 137 -4 -18 -133 16 -134 60 -3 63 191 -90 261 -238 109z"/> <path d="M3244 1965 c-39 -291 -40 -314 -21 -350 30 -58 50 -41 107 94 49 115 160 264 125 169 -48 -134 -31 -298 31 -298 23 0 28 33 39 290 7 135 -83 149 -163 25 -60 -93 -62 -91 -40 45 21 124 10 200 -28 200 -18 0 -34 -58 -50 -175z"/> <path d="M2660 2040 c0 -54 7 -62 45 -56 33 4 45 19 45 56 0 37 -12 52 -45 56 -38 6 -45 -2 -45 -56z"/> <path d="M4033 2020 c10 -50 6 -60 -26 -60 -40 0 -87 -35 -87 -65 0 -10 25 -15 55 -11 30 3 55 -3 54 -14 0 -11 -7 -81 -16 -156 -13 -111 -10 -145 16 -185 61 -93 211 -40 211 75 l0 61 -41 -52 c-69 -87 -107 -70 -92 40 7 51 13 113 13 139 0 36 12 47 63 52 75 7 104 56 34 56 -65 1 -89 21 -106 90 -24 99 -97 127 -78 30z"/> <path d="M2421 2007 c-22 -29 -41 -67 -42 -85 0 -20 -12 -12 -30 23 -17 30 -38 55 -48 55 -30 0 -49 -296 -21 -330 38 -46 50 -37 75 55 12 47 51 117 85 155 l62 70 -12 -114 c-13 -120 10 -196 60 -196 21 0 24 12 12 44 -9 24 -9 76 1 115 51 220 -34 345 -142 208z"/> <path d="M2660 1913 c0 -26 -9 -73 -20 -105 -24 -70 1 -176 44 -184 39 -8 69 235 36 296 -29 54 -60 50 -60 -7z"/> <path d="M3664 1890 c-75 -63 -115 -211 -78 -290 33 -68 138 -80 180 -20 29 42 29 42 40 1 34 -130 93 17 94 232 0 116 -136 161 -236 77z m136 -75 c0 -65 -65 -185 -100 -185 -35 0 -35 125 0 190 30 56 100 53 100 -5z"/> <path d="M4447 1565 c-175 -421 -550 -905 -703 -905 -108 0 -171 -105 -115 -191 61 -94 251 -49 251 59 0 20 54 95 120 168 66 74 120 139 120 147 0 7 26 40 57 74 93 99 339 602 342 698 2 52 -42 22 -72 -50z m-667 -995 c29 -35 -4 -90 -53 -90 -40 0 -56 55 -27 90 31 38 49 38 80 0z"/> <path d="M1023 1314 c-87 -94 -25 -224 106 -220 52 2 103 -17 175 -65 215 -141 677 -297 926 -313 162 -10 125 29 -64 68 -375 76 -948 356 -913 447 35 91 -156 161 -230 83z m145 -66 c16 -42 -2 -68 -48 -68 -45 0 -68 31 -52 71 15 39 85 37 100 -3z"/> <path d="M3820 926 c-243 -236 -843 -529 -959 -467 -101 54 -201 -2 -201 -112 0 -128 141 -170 236 -71 30 31 122 82 204 113 300 113 860 512 860 613 0 38 -53 9 -140 -76z m-984 -574 c-4 -27 -20 -42 -46 -42 -45 0 -67 67 -29 91 40 24 82 -2 75 -49z"/> <path d="M1806 720 c-91 -37 -112 -149 -40 -217 53 -49 118 -56 159 -15 22 22 61 24 196 9 274 -29 630 13 909 107 244 83 201 114 -62 46 -395 -102 -908 -87 -1026 31 -64 64 -70 65 -136 39z m93 -98 c24 -45 -20 -93 -69 -75 -36 14 -40 86 -5 100 43 17 53 14 74 -25z"/> </g> </svg> 